<?xml version="1.0" standalone="no"?><!DOCTYPE svg PUBLIC "-//W3C//DTD SVG 1.1//EN" "http://www.w3.org/Graphics/SVG/1.1/DTD/svg11.dtd"><svg t="1658125551079" class="icon" viewBox="0 0 1024 1024" version="1.1" xmlns="http://www.w3.org/2000/svg" p-id="8434" xmlns:xlink="http://www.w3.org/1999/xlink" width="200" height="200"><defs><style type="text/css"></style></defs><path d="M872.448 512c9.216-10.24 17.408-19.968 25.6-30.208 68.608-88.064 88.576-167.424 55.296-224.256-37.888-65.536-135.68-83.456-260.608-57.856-40.448-121.344-104.96-197.12-180.224-197.12s-139.776 75.776-180.224 197.12c-125.44-25.6-223.232-7.68-260.608 57.856-10.24 17.92-15.36 38.4-15.36 59.904 0 57.344 34.304 125.44 95.744 194.56-84.992 95.744-118.272 189.44-80.384 254.976 26.624 46.592 83.968 69.12 159.744 69.12 30.72 0 65.024-3.584 101.376-11.264 40.448 121.344 104.96 197.12 180.224 197.12s139.776-75.776 180.224-197.12c36.352 7.68 70.144 11.264 101.376 11.264 75.776 0 132.608-22.528 159.744-69.12 32.768-56.832 13.312-136.704-55.296-224.256-9.216-10.752-17.92-20.48-26.624-30.72z m-75.264-257.024c49.664 0 84.992 12.288 98.816 35.328 17.92 30.72-1.024 87.04-50.176 150.016-6.144 7.68-12.8 15.872-19.456 23.552-13.824 15.872-29.696 31.744-46.592 47.616-13.312 12.8-27.648 25.088-42.496 37.376 0.512-12.288 0.512-25.088 0.512-37.376s0-25.088-0.512-37.376c-1.024-30.72-3.072-59.904-6.144-88.576-4.608-43.008-11.264-83.968-19.968-121.344 31.232-6.144 60.416-9.216 86.016-9.216z m-140.8 433.152c-3.072 18.944-7.168 37.376-11.264 54.784-3.584-1.024-7.68-2.048-11.264-3.584-13.824-4.096-27.648-9.216-41.984-14.336-26.112-9.728-52.736-20.992-80.384-33.792-26.112-12.288-52.736-26.112-79.36-41.472-26.624-15.36-52.224-31.232-75.776-47.616-25.088-17.408-48.128-34.816-69.632-52.736-14.848-12.288-29.184-24.576-41.984-36.864 12.8-12.288 27.136-24.576 41.984-36.864 21.504-17.92 44.544-35.328 69.632-52.736 23.552-16.384 49.152-32.256 75.776-47.616 26.624-15.36 53.248-29.184 79.36-41.472 27.648-12.8 54.272-24.576 80.384-33.792 17.92-6.656 35.84-12.8 53.248-17.92 4.096 17.408 7.68 35.84 11.264 54.784 4.608 27.136 8.192 56.32 10.752 86.528 2.56 28.672 3.584 58.88 3.584 89.6s-1.024 60.928-3.584 89.6c-2.56 29.184-6.144 57.856-10.752 85.504zM512 69.12c40.448 0 83.968 55.808 114.688 146.944-36.864 11.264-75.264 25.6-114.688 43.008-39.424-17.92-77.824-32.256-114.688-43.008 30.72-91.136 74.24-146.944 114.688-146.944z m-383.488 221.696c13.312-23.552 48.64-35.328 98.816-35.328 25.088 0 54.272 3.072 86.016 9.216 20.48 4.096 42.496 9.728 65.536 16.384 17.408 5.12 34.816 11.264 53.248 17.92-10.752 5.632-21.504 11.776-32.256 17.92-10.752 6.144-21.504 12.8-31.744 18.944-26.112 16.384-51.2 32.768-74.24 49.664-34.816 25.6-66.56 51.712-94.72 77.824-64.512-72.192-91.136-137.728-70.656-172.544z m0 442.88c-20.48-35.328 6.144-100.352 69.632-173.056 28.16 26.112 59.904 52.736 94.72 77.824 4.608 43.008 11.264 83.456 19.968 121.344-94.208 18.432-163.84 8.704-184.32-26.112z m383.488 221.184c-40.448 0-83.968-55.808-114.688-146.944-6.656-19.968-12.8-41.472-18.432-65.024-4.096-17.408-7.68-35.84-11.264-54.784 10.24 6.656 20.992 12.8 31.744 18.944 10.752 6.144 21.504 12.288 32.256 17.92 27.136 14.848 53.76 27.648 80.384 39.424 39.424 17.92 78.336 32.256 114.688 43.008-30.72 91.648-74.24 147.456-114.688 147.456z m383.488-221.184c-13.312 23.552-48.64 35.328-98.816 35.328-25.088 0-54.272-3.072-86.016-9.216 8.704-37.376 15.36-78.336 19.968-121.344 34.816-25.088 66.56-51.712 94.72-78.336 6.656 7.68 13.312 15.872 19.456 23.552 49.664 62.464 68.608 118.784 50.688 150.016z" p-id="8435" data-spm-anchor-id="a313x.7781069.0.i2" class="selected" fill="#1296db"></path><path d="M512 512m-81.92 0a81.92 81.92 0 1 0 163.84 0 81.92 81.92 0 1 0-163.84 0Z" p-id="8436" data-spm-anchor-id="a313x.7781069.0.i0" class="" fill="#99cc99"></path></svg>